{"accessors":[{"bufferView":2,"componentType":5126,"count":354,"max":[1.7524282932281494,1.0534647703170776,0.11685825884342194],"min":[-1.2560596466064453,-1.0552071332931519,-0.11744827032089233],"type":"VEC3"},{"bufferView":2,"byteOffset":4248,"componentType":5126,"count":354,"max":[0.9091233015060425,0.9905693531036377,0.9974821209907532],"min":[-0.9950500130653381,-0.9905694127082825,-0.9999966621398926],"type":"VEC3"},{"bufferView":1,"componentType":5126,"count":354,"max":[1.0000001192092896,1.0000001192092896],"min":[0,0.5],"type":"VEC2"},{"bufferView":0,"componentType":5125,"count":2016,"type":"SCALAR"}],"asset":{"extras":{"author":"Alihan (https://sketchfab.com/Dare0)","license":"CC-BY-4.0 (http://creativecommons.org/licenses/by/4.0/)","source":"https://sketchfab.com/3d-models/direction-arrow-6ef46718c7b242e39fcad7f27ee858a5","title":"Direction Arrow"},"generator":"Sketchfab-14.32.1","version":"2.0"},"bufferViews":[{"buffer":0,"byteLength":8064,"name":"floatBufferViews","target":34963},{"buffer":0,"byteLength":2832,"byteOffset":8064,"byteStride":8,"name":"floatBufferViews","target":34962},{"buffer":0,"byteLength":8496,"byteOffset":10896,"byteStride":12,"name":"floatBufferViews","target":34962}],"buffers":[{"byteLength":19392,"uri":"data:application/octet-stream;base64,"}],"materials":[{"doubleSided":true,"name":"Material.001","pbrMetallicRoughness":{"baseColorFactor":[0.0691319668529533,0.3295249214915017,0.9309814245047139,1],"metallicFactor":0,"roughnessFactor":0.8878588312587499}}],"meshes":[{"name":"Arrow_Material.001_0","primitives":[{"attributes":{"NORMAL":1,"POSITION":0,"TEXCOORD_0":2},"indices":3,"material":0,"mode":4}]}],"nodes":[{"children":[1],"matrix":[0.9998863339424133,-3.347861741665976e-18,0.01507742889225483,0,0.01507742889225483,2.220193659901811e-16,-0.9998863339424133,0,0,1,2.220446049250313e-16,0,0,0,0,1],"name":"Sketchfab_model"},{"children":[2],"matrix":[0.009999999776482582,0,0,0,0,0,0.009999999776482582,0,0,-0.009999999776482582,0,0,0,0,0,1],"name":"54b2761560d74cf7a540d3659ba46cd1.fbx"},{"children":[3],"name":"RootNode"},{"children":[4],"matrix":[100,0,0,0,0,-0.00001629206793918314,-99.99999999999868,0,0,99.99999999999868,-0.00001629206793918314,0,11.482990264892578,8.66330623626709,11.398099899291992,1],"name":"Arrow"},{"mesh":0,"name":"Arrow_Material.001_0"}],"scene":0,"scenes":[{"name":"Sketchfab_Scene","nodes":[0]}]}